<mxfile host="app.diagrams.net" modified="2020-12-11T00:32:51.684Z" agent="5.0 (Windows)" etag="AkomopIoeZdE5T5VCFOf" version="14.0.1" type="github">
  <diagram id="FdIUIFyrrePTpbNvECt5" name="Page-1">
    <mxGraphModel dx="868" dy="491" grid="1" gridSize="10" guides="1" tooltips="1" connect="1" arrows="1" fold="1" page="1" pageScale="1" pageWidth="827" pageHeight="1169" math="0" shadow="0">
      <root>
        <mxCell id="0" />
        <mxCell id="1" parent="0" />
        <mxCell id="HB8kZ2pYk__Of7g1uDnR-3" value="&lt;div&gt;Front-End&lt;/div&gt;" style="rounded=0;whiteSpace=wrap;html=1;" vertex="1" parent="1">
          <mxGeometry x="200" y="130" width="120" height="60" as="geometry" />
        </mxCell>
        <mxCell id="HB8kZ2pYk__Of7g1uDnR-4" value="&lt;div&gt;Back-End&lt;/div&gt;" style="rounded=0;whiteSpace=wrap;html=1;" vertex="1" parent="1">
          <mxGeometry x="200" y="200" width="120" height="60" as="geometry" />
        </mxCell>
        <mxCell id="HB8kZ2pYk__Of7g1uDnR-5" value="DataBase" style="rounded=0;whiteSpace=wrap;html=1;" vertex="1" parent="1">
          <mxGeometry x="350" y="220" width="120" height="60" as="geometry" />
        </mxCell>
      </root>
    </mxGraphModel>
  </diagram>
</mxfile>
